# ProBuilder 5.0.4
# https://unity3d.com/unity/features/worldbuilding/probuilder
# 08.05.2022 17:41:56

mtllib ./Cube_(1).mtl
o Cube (1)

g Cube (1)
v 4.019101 0 4.748066
v 0 0 4.748066
v 4.019101 7.754704 4.748066
v 0 7.754704 4.748066
v 0 0 0
v 0 7.754704 0
v 4.019101 0 0
v 4.019101 7.754704 0

vt 4.019101 0
vt 0 0
vt 4.019101 7.754704
vt 0 7.754704
vt 4.748066 0
vt 4.748066 7.754704
vt -4.019101 0
vt -4.019101 7.754704
vt -4.748066 0
vt -4.748066 7.754704
vt -4.019101 4.748066
vt 0 4.748066
vt 4.019101 4.748066

vn 0 0 1
vn -1 0 0
vn 0 0 -1
vn 1 0 0
vn 0 1 0
vn 0 -1 0

usemtl ProBuilderDefault
f 3/3/1 4/4/1 2/2/1 1/1/1
f 4/6/2 6/4/2 5/2/2 2/5/2
f 6/4/3 8/8/3 7/7/3 5/2/3
f 8/4/4 3/10/4 1/9/4 7/2/4
f 8/7/5 6/2/5 4/12/5 3/11/5
f 1/13/6 2/12/6 5/2/6 7/1/6

